<svg xmlns="http://www.w3.org/2000/svg" viewBox="0 0 200 200" width="200" height="200">
  <defs>
    <linearGradient id="bgISFJ" x1="0%" y1="0%" x2="100%" y2="100%">
      <stop offset="0%" stop-color="#EAF5F9"/>
      <stop offset="100%" stop-color="#D2EBF5"/>
    </linearGradient>
  </defs>
  <circle cx="100" cy="100" r="94" fill="url(#bgISFJ)" stroke="#4298B4" stroke-width="3"/>
  <circle cx="100" cy="100" r="88" fill="none" stroke="#4298B4" stroke-width="1" stroke-dasharray="4,4" opacity="0.4"/>
  
  <!-- Defender: Caregiver blue dress with apron, first-aid heart / warm teapot, gentle caring posture -->
  <!-- Body: Warm nurse/caregiver uniform & white apron -->
  <path d="M52,168 C52,126 72,118 100,118 C128,118 148,126 148,168 Z" fill="#4298B4"/>
  <path d="M76,128 L124,128 L120,168 L80,168 Z" fill="#FFFFFF"/>
  <path d="M84,118 L100,132 L116,118 Z" fill="#FFFFFF"/>
  <!-- Head -->
  <circle cx="100" cy="78" r="27" fill="#FDF0E4"/>
  <!-- Hair: Soft, warm, neat bun or shoulder-length hair -->
  <path d="M72,76 C72,50 84,44 100,44 C116,44 128,50 128,76 C132,96 124,112 120,120 C114,94 112,56 100,56 C88,56 86,94 80,120 C76,112 68,96 72,76 Z" fill="#20556B"/>
  <circle cx="100" cy="40" r="8" fill="#20556B"/>
  <!-- Warm gentle eyes & blush -->
  <path d="M84,76 Q90,72 96,76" stroke="#20556B" stroke-width="2.5" fill="none" stroke-linecap="round"/>
  <path d="M104,76 Q110,72 116,76" stroke="#20556B" stroke-width="2.5" fill="none" stroke-linecap="round"/>
  <ellipse cx="80" cy="84" rx="4" ry="2.5" fill="#FF85A1" opacity="0.45"/>
  <ellipse cx="120" cy="84" rx="4" ry="2.5" fill="#FF85A1" opacity="0.45"/>
  <!-- Sweet comforting smile -->
  <path d="M94,92 Q100,97 106,92" stroke="#20556B" stroke-width="2" fill="none" stroke-linecap="round"/>
  <!-- Prop: First aid box / warm heart badge -->
  <g transform="translate(130, 130)">
    <rect x="0" y="4" width="24" height="20" rx="3" fill="#FFFFFF" stroke="#4298B4" stroke-width="1.5"/>
    <path d="M8,4 Q12,0 16,4" stroke="#4298B4" stroke-width="2" fill="none"/>
    <!-- Red cross -->
    <rect x="10" y="9" width="4" height="10" fill="#E74C3C"/>
    <rect x="7" y="12" width="10" height="4" fill="#E74C3C"/>
  </g>
</svg>